<?xml version="1.0" encoding="UTF-8"?>
<svg width="17px" height="12px" viewBox="0 0 17 12" version="1.1" xmlns="http://www.w3.org/2000/svg" xmlns:xlink="http://www.w3.org/1999/xlink">
    <!-- Generator: Sketch 50.2 (55047) - http://www.bohemiancoding.com/sketch -->
    <title>XMLID_488_</title>
    <desc>Created with Sketch.</desc>
    <defs></defs>
    <g id="Beevy-pages" stroke="none" stroke-width="1" fill="none" fill-rule="evenodd">
        <g id="Beevy-Homepage-Studenten" transform="translate(-1796.000000, -4770.000000)" fill="#161616" fill-rule="nonzero">
            <g id="XMLID_488_" transform="translate(1796.000000, 4770.000000)">
                <path d="M16.6382979,2.05714286 C16.4574468,1.2 15.7340426,0.6 14.8297872,0.428571429 C13.3829787,0.257142857 11.1223404,0 8.5,0 C5.87765957,0 3.61702128,0.257142857 2.17021277,0.428571429 C1.26595745,0.514285714 0.542553191,1.2 0.361702128,2.05714286 C0.180851064,3 0,4.37142857 0,6 C0,7.71428571 0.180851064,9 0.361702128,9.94285714 C0.542553191,10.8 1.26595745,11.4 2.17021277,11.5714286 C3.61702128,11.7428571 5.87765957,12 8.5,12 C11.1223404,12 13.3829787,11.7428571 14.8297872,11.5714286 C15.7340426,11.4857143 16.4574468,10.8 16.6382979,9.94285714 C16.8191489,9 17,7.62857143 17,6 C17,4.37142857 16.8191489,3 16.6382979,2.05714286 Z M6.96276596,8.82857143 L6.96276596,3.25714286 L12.0265957,6.08571429 L6.96276596,8.82857143 Z" id="XMLID_6_"></path>
            </g>
        </g>
    </g>
</svg>