<?xml version="1.0" encoding="utf-8"?>
<!-- Generator: Adobe Illustrator 22.0.0, SVG Export Plug-In . SVG Version: 6.00 Build 0)  -->
<svg version="1.1" id="Layer_1" xmlns="http://www.w3.org/2000/svg" xmlns:xlink="http://www.w3.org/1999/xlink" x="0px" y="0px"
	 viewBox="0 0 15.6 27.8" style="enable-background:new 0 0 15.6 27.8;" xml:space="preserve">
<g id="surface1">
	<path d="M6,1.4C5.7,1.7,5.5,2,5.3,2.3C4.6,3.8,4.4,5.5,4.4,7.3L4.3,19c0,1,0.2,2.1,0.8,2.9s1.7,1.5,3,1.5c1.3,0,2.4-0.7,3-1.5
		C11.8,21,12,20,12,19l0.2-12.8c0-0.4-0.1-0.8-0.5-1c-0.3-0.2-0.7-0.2-1.1,0c-0.3,0.2-0.5,0.6-0.5,0.9L10,19c0,0.6-0.2,1.3-0.5,1.7
		c-0.3,0.4-0.7,0.7-1.4,0.7c-0.7,0-1.1-0.3-1.4-0.7c-0.3-0.4-0.5-1.1-0.5-1.8L6.4,7.3c0-1.7,0.2-3.2,0.6-4C7.5,2.4,8,2,9.5,2
		c1.1,0,2.2-0.1,2.9,0.3c0.3,0.2,0.6,0.4,0.8,1s0.4,1.5,0.4,2.9c-0.1,5.9-0.1,10.4-0.2,12.8c0,2.2-0.3,3.9-1.1,5
		c-0.7,1.1-1.8,1.7-4.1,1.7s-3.8-0.8-4.8-2C2.5,22.5,2,20.6,2,18c0-3.1,0.4-9.3,0.4-9.3c0.1-0.4-0.1-0.8-0.4-1
		C1.7,7.5,1.3,7.5,0.9,7.6C0.6,7.8,0.4,8.2,0.4,8.6c0,0-0.4,6.2-0.4,9.4c0,2.9,0.6,5.3,2,7.1s3.6,2.7,6.3,2.8c2.7,0,4.7-0.9,5.8-2.6
		s1.4-3.8,1.4-6.1c0-2.4,0.1-6.9,0.2-12.8c0-1.6-0.2-2.8-0.6-3.7c-0.4-0.9-1-1.6-1.7-2C11.9-0.2,10.4,0,9.5,0c-1,0-1.9,0.2-2.6,0.6
		C6.5,0.9,6.2,1.1,6,1.4z"/>
</g>
</svg>
