<?xml version="1.0" encoding="UTF-8"?>
<svg width="17px" height="9px" viewBox="0 0 17 9" version="1.1" xmlns="http://www.w3.org/2000/svg" xmlns:xlink="http://www.w3.org/1999/xlink">
    <!-- Generator: Sketch 50.2 (55047) - http://www.bohemiancoding.com/sketch -->
    <title>icons8-sort-down (1)</title>
    <desc>Created with Sketch.</desc>
    <defs></defs>
    <g id="Beevy-pages" stroke="none" stroke-width="1" fill="none" fill-rule="evenodd">
        <g id="Beevy-Homepage-Studenten" transform="translate(-293.000000, -2973.000000)" fill="#FFFFFF" fill-rule="nonzero">
            <g id="icons8-sort-down-(1)" transform="translate(301.500000, 2977.500000) rotate(-360.000000) translate(-301.500000, -2977.500000) translate(293.000000, 2973.000000)">
                <path d="M0.984929953,0 C0.632570492,0 0.163530595,0.225 0.0460774413,0.5625 C-0.0713757124,0.9 0.0460774413,1.2375 0.280983749,1.575 C2.86418041,5.175 7.79566744,8.775 7.79566744,8.775 C7.79566744,8.775 8.03057374,9 8.49652277,9 C8.96942626,9 9.20433256,8.775 9.20433256,8.775 C9.20433256,8.775 14.1358196,5.175 16.7190163,1.575 C16.9539226,1.2375 17.0713757,0.9 16.9539226,0.5625 C16.8356967,0.225 16.3666568,0 16.0142973,0 L0.984929953,0 Z" id="Shape"></path>
            </g>
        </g>
    </g>
</svg>