<?xml version="1.0" encoding="utf-8"?>
<!-- Generator: Adobe Illustrator 19.0.0, SVG Export Plug-In . SVG Version: 6.00 Build 0)  -->
<svg version="1.1" id="Layer_1" xmlns="http://www.w3.org/2000/svg" xmlns:xlink="http://www.w3.org/1999/xlink" x="0px" y="0px"
	 viewBox="253 -64.5 570 193.5" style="enable-background:new 253 -64.5 570 193.5;" xml:space="preserve">
<style type="text/css">
	.st0{fill:#FFFFFF;}
</style>
<g>
	<g>
		<path class="st0" d="M805.8,21.7l-22.2,63.2l-4.1-10.4l-20.6-52.8h-17.1l33.7,83.3c-3.5,5.1-8.6,9.3-16.2,8.8
			c-1.9-0.1-4.2-0.7-5.8-1.1l-0.3-0.1v15.6c2.1,0.5,4.4,0.8,7.3,0.8c17.6,0,26-11.2,32.7-29.4l1-2.9c0.4-0.8,0.8-1.6,1.2-2.5
			L823,21.7H805.8z"/>
		<path class="st0" d="M685,86.3l-25.2-64.5h-17.1L672,95.7c1.3,3.2,3.1,5.7,5.4,7.3c2.2,1.6,4.6,2.4,7,2.3c0.1,0,0.3,0,0.4,0
			c0.1,0,0.3,0,0.4,0c2.3-0.2,4.5-1.1,6.6-2.7c2-1.6,3.7-3.9,4.9-7l28-73.8h-17.2L685,86.3z"/>
		<path class="st0" d="M517.1,68.5h-0.2c-7.3,21.8-24.9,22.4-25.6,22.4l0,0l0,0l0,0c-0.6,0-1.2,0-1.8,0c-8.4,0-14.8-2.7-19.3-8
			c-0.6-0.7-1.2-1.5-1.7-2.2l60.3-33c-3.9-7.2-9.1-13.3-15.6-18.4c-6.5-5.1-14.4-7.6-23.6-7.6c-1.6,0-3.3,0.1-5,0.3
			c-1.7,0.2-3.3,0.5-5,0.8c-8,2-15.3,6.4-21.9,13.2c-6.6,6.8-10,16.4-10,28.8c0,11.8,4.1,21.4,12.1,29c8.1,7.6,18,11.4,29.7,11.4
			c0.6,0,1.1,0,1.6,0h0.1c0,0,0,0,0.1,0c15.2,0,38-15.3,40-36.6l0,0v-0.1v-0.1l-14,0.1H517.1z M463.2,67
			c-3.7-10.7,2.5-21.9,11.8-27.5c8.3-5,21.5-7,30.9,2.9l-42.4,24.5C463.4,66.9,463.3,67,463.2,67z"/>
		<path class="st0" d="M615.5,68.5h-0.2c-7.3,21.8-24.9,22.4-25.6,22.4l0,0l0,0l0,0c-0.6,0-1.2,0-1.8,0c-8.4,0-14.8-2.7-19.3-8
			c-0.6-0.7-1.2-1.5-1.7-2.2l60.3-33c-3.9-7.2-9.1-13.3-15.6-18.4s-14.4-7.6-23.6-7.6c-1.6,0-3.3,0.1-5,0.3c-1.7,0.2-3.3,0.5-5,0.8
			c-8,2-15.3,6.4-21.9,13.2c-6.6,6.8-10,16.4-10,28.8c0,11.8,4.1,21.4,12.1,29c8.1,7.6,18,11.4,29.7,11.4c0.6,0,1.1,0,1.6,0h0.1
			c0,0,0,0,0.1,0c15.2,0,38-15.3,40-36.6l0,0v-0.1v-0.1l-14,0.1H615.5z M561.7,68.7c-3.7-10.7,2.5-21.9,11.8-27.5
			c8.3-5,21.5-7,30.9,2.9L562,68.6C561.9,68.6,561.8,68.7,561.7,68.7z"/>
	</g>
	<g>
		<path class="st0" d="M424.2,43L424.2,43c-0.6-2.2-2.6-8.8-5.8-12.7l-1.5,0.8l-88.4,49.2l0,0l0,0c1.6,2.7,3.5,5.3,5.4,7.5
			c1.1,1.3,2.2,2.5,3.6,3.7L424.1,43H424.2z"/>
		<path class="st0" d="M418.4,13.4c1.4-8.6,1.4-7.2,1.4-13.5c0-12.5-5.2-23.8-15.7-33.8c-11-9.3-23.2-14-36.7-14
			c-7.9,0-14.9,1.1-20.9,3.4l0,0c-0.5,0.2-1,0.4-1.4,0.6c-0.7,0.3-1.4,0.6-2,0.9c-1.6,0.7-3.1,1.5-4.5,2.2l-1.4-22.7
			c-3.7-2.4-7,0.2-7,0.4l1.7,26.5c-3.6,2.6-6.3,5.3-8,7.9l-13-16.9c-2.8-0.6-5.7,1.8-5.5,4.2l16.4,21.5l0.3,85.1l20.6-11L418.4,13.4
			z M342.7-19.2c1.6-1.8,3.2-3.3,5-4.7c0.4-0.3,0.9-0.7,1.4-0.9c0.1-0.1,0.3-0.2,0.4-0.2c10-6,24.3-6.2,35.1-0.5
			c0.5,0.3,1,0.5,1.4,0.8c0.3,0.2,0.6,0.3,0.9,0.5l0,0c0.3,0.2,0.6,0.4,0.8,0.6c0.2,0.1,0.4,0.3,0.6,0.4c0.4,0.3,0.8,0.6,1.2,0.9
			c7.5,6.1,12.1,16,9.6,29.7l-56.5,30.1v-56.7H342.7z"/>
		<path class="st0" d="M387,81.3l-34.8,19.5c14,5.5,27.4,6,40.1,1l15.3,6.6l0,0l0,0l0.5,0.2V108l0.3-16.3c3.2-3,6.3-6.6,9.2-10.8
			c3.8-6.8,6.6-14.7,7.8-21.3l-35.3,19.6C390.2,79.4,387,81.3,387,81.3z"/>
		<path class="st0" d="M314,6.7c-0.6-3.9-5.5-8.5-13.3-12.1c-0.4-0.2-0.8-0.4-1.2-0.6c-0.3-0.1-0.6-0.3-0.9-0.4l0,0
			c-3.7-1.4-8.1-2.1-13-2.1c-8.4,0-16,2.9-22.8,8.8c-6.6,6.3-9.8,13.4-9.8,21.2c0,3.9,0,4.7,1.6,8.5c0,0.1-0.1,0,0,0L301,55.6l0,0
			h0.1l12.8,6.9V52.1l0,0L314,6.7L314,6.7z M301.5,42.8l-36-20.4v-1.3C265.4,13.5,270,7.7,279,3.8c2.8-0.6,4.9-0.9,6.4-0.9h0.9
			c6.1,0,11.2,2.2,15.1,6.7v33.2H301.5z"/>
	</g>
</g>
</svg>
