<?xml version="1.0" encoding="utf-8"?>
<!-- Generator: Adobe Illustrator 22.0.0, SVG Export Plug-In . SVG Version: 6.00 Build 0)  -->
<svg version="1.1" id="Layer_1" xmlns="http://www.w3.org/2000/svg" xmlns:xlink="http://www.w3.org/1999/xlink" x="0px" y="0px"
	 viewBox="0 0 172.4 173.1" style="enable-background:new 0 0 172.4 173.1;" xml:space="preserve">
<style type="text/css">
	.st0{fill:#F7C911;}
</style>
<g>
	<g>
		<path class="st0" d="M171.2,107.5L171.2,107.5c-0.6-2.2-2.6-8.8-5.8-12.7l-1.5,0.8l-88.4,49.2l0,0l0,0c1.6,2.7,3.5,5.3,5.4,7.5
			c1.1,1.3,2.2,2.5,3.6,3.7l86.6-48.5H171.2z"/>
		<path class="st0" d="M165.4,77.9c1.4-8.6,1.4-7.2,1.4-13.5c0-12.5-5.2-23.8-15.7-33.8c-11-9.3-23.2-14-36.7-14
			c-7.9,0-14.9,1.1-20.9,3.4l0,0c-0.5,0.2-1,0.4-1.4,0.6c-0.7,0.3-1.4,0.6-2,0.9c-1.6,0.7-3.1,1.5-4.5,2.2L84.2,1
			c-3.7-2.4-7,0.2-7,0.4l1.7,26.5c-3.6,2.6-6.3,5.3-8,7.9l-13-16.9c-2.8-0.6-5.7,1.8-5.5,4.2l16.4,21.5l0.3,85.1l20.6-11L165.4,77.9
			z M89.7,45.3c1.6-1.8,3.2-3.3,5-4.7c0.4-0.3,0.9-0.7,1.4-0.9c0.1-0.1,0.3-0.2,0.4-0.2c10-6,24.3-6.2,35.1-0.5
			c0.5,0.3,1,0.5,1.4,0.8c0.3,0.2,0.6,0.3,0.9,0.5l0,0c0.3,0.2,0.6,0.4,0.8,0.6c0.2,0.1,0.4,0.3,0.6,0.4c0.4,0.3,0.8,0.6,1.2,0.9
			c7.5,6.1,12.1,16,9.6,29.7L89.6,102L89.7,45.3L89.7,45.3z"/>
		<path class="st0" d="M134,145.8l-34.8,19.5c14,5.5,27.4,6,40.1,1l15.3,6.6l0,0l0,0l0.5,0.2v-0.6l0.3-16.3c3.2-3,6.3-6.6,9.2-10.8
			c3.8-6.8,6.6-14.7,7.8-21.3l-35.3,19.6C137.2,143.9,134,145.8,134,145.8z"/>
		<path class="st0" d="M61,71.2c-0.6-3.9-5.5-8.5-13.3-12.1c-0.4-0.2-0.8-0.4-1.2-0.6c-0.3-0.1-0.6-0.3-0.9-0.4l0,0
			c-3.7-1.4-8.1-2.1-13-2.1c-8.4,0-16,2.9-22.8,8.8C3.2,71.1,0,78.2,0,86c0,3.9,0,4.7,1.6,8.5c0,0.1-0.1,0,0,0L48,120.1l0,0h0.1
			l12.8,6.9v-10.4l0,0L61,71.2L61,71.2z M48.5,107.3l-36-20.4v-1.3C12.4,78,17,72.2,26,68.3c2.8-0.6,4.9-0.9,6.4-0.9h0.9
			c6.1,0,11.2,2.2,15.1,6.7L48.5,107.3L48.5,107.3z"/>
	</g>
</g>
</svg>
