<?xml version="1.0" encoding="UTF-8"?>
<svg width="52px" height="65px" viewBox="0 0 52 65" version="1.1" xmlns="http://www.w3.org/2000/svg" xmlns:xlink="http://www.w3.org/1999/xlink">
    <!-- Generator: Sketch 50.2 (55047) - http://www.bohemiancoding.com/sketch -->
    <title>9</title>
    <desc>Created with Sketch.</desc>
    <defs></defs>
    <g id="Beevy-pages" stroke="none" stroke-width="1" fill="none" fill-rule="evenodd">
        <g id="Beevy-Homepage-Studenten" transform="translate(-1208.000000, -1367.000000)" fill-rule="nonzero">
            <g id="Group-3" transform="translate(390.000000, 1291.000000)">
                <g id="9" transform="translate(818.000000, 76.000000)">
                    <path d="M49.3557682,27.0167832 L49.3471053,27.0167832 C46.3405656,21.6627659 41.82617,17.7795281 41.82617,17.7795281 L41.82617,15 L14.1731398,15 L14.1731398,17.7795281 C14.1731398,17.7795281 9.6587441,21.6622658 6.65220449,27.0167832 L6.64354158,27.0167832 C4.90943068,30.1043698 3.6629907,33.6795491 4.08135833,37.2887349 C5.19683549,47.0390874 9.71123114,57.2595293 12.4303659,61.8268971 C13.2497754,63.2036587 14.1298252,64.2388554 15.123512,65 L40.8768169,65 C41.8705037,64.2303538 42.7418906,63.2041588 43.569963,61.8268971 C46.2890978,57.2595293 50.8034934,47.0390874 51.9189706,37.2887349 C52.336319,33.6795491 51.0903886,30.1043698 49.3557682,27.0167832 Z M31.973383,37.5707884 C31.9601338,41.0429482 29.0799708,43.862984 25.5393882,43.862984 C21.9937098,43.862984 19.1099797,41.0354467 19.1043743,37.5572859 L19.1043743,37.5477841 C19.1043743,37.547284 19.1043743,37.547284 19.1043743,37.5467839 C19.0202931,35.3993759 20.56382,33.3559876 22.1104043,31.4711295 C23.6595366,29.5832708 25.209688,27.8179354 25.3345359,26.4971845 C25.347785,26.357658 25.4690658,26.2521379 25.611749,26.2556386 C25.7472981,26.2591392 25.8599159,26.3601584 25.8752034,26.4921835 C25.9501121,27.1393065 26.3689893,27.9309569 26.9743739,28.7891199 C27.5792489,29.647283 28.362478,30.5749592 29.1288908,31.5361419 C30.656111,33.4515058 32.1532658,35.5023955 31.9749117,37.547284 C31.9744021,37.5547854 31.973383,37.5622868 31.973383,37.5707884 Z" id="Shape" fill="#F7C911"></path>
                    <path d="M47.2280009,21.4729129 L46.8514557,20.7986133 L46.8403808,20.7986133 C44.3525643,16.5028112 41.1197117,13.2502172 39.9503071,12.1424755 L39.9503071,10.738489 L43.4741265,10.738489 L43.4741265,3.91063321 C43.4741265,1.75409379 41.7358767,0 39.5994354,0 L10.1000332,0 C7.96359182,0 6.22584547,1.75409379 6.22584547,3.91063321 L6.22584547,10.738489 L10.0496929,10.738489 L10.0496929,12.1424755 C8.88028827,13.2502172 5.64743569,16.502303 3.15961921,20.7986133 L2.77199908,21.4729129 C0.601326343,25.4480797 -0.301778223,29.2210074 0.0883589223,32.684987 C1.27638945,43.3640238 6.11257985,53.9983445 8.5042464,58.1300179 C9.3952693,59.6701854 10.3698571,60.8460177 11.4848942,61.7240808 L11.8347591,62 L38.1697715,62 L38.5211466,61.7189995 C39.6261157,60.8378875 40.5976831,59.665104 41.4957536,58.1300179 C43.8879236,53.9988526 48.7236105,43.3640238 49.9116411,32.6870195 C50.3017782,29.2210074 49.3986737,25.4480797 47.2280009,21.4729129 Z M8.80830167,3.91063321 C8.80830167,3.19161736 9.38771826,2.60725818 10.0995298,2.60725818 L39.5994354,2.60725818 C40.3117503,2.60725818 40.8906635,3.19212549 40.8906635,3.91063321 L40.8906635,8.13173898 L8.80830167,8.13173898 L8.80830167,3.91063321 Z M12.1926785,13.6968709 L12.6321491,13.3071287 L12.6321491,10.7389972 L37.3673475,10.7389972 L37.3673475,13.308145 L37.8078249,13.6978871 C37.8450767,13.7309161 41.0945416,16.6313702 43.8013383,20.8006458 L6.19866172,20.8006458 C8.90042438,16.6410248 12.1554267,13.7298998 12.1926785,13.6968709 Z M39.2681964,56.8093661 C38.6344123,57.8947498 37.9709274,58.7433409 37.2505581,59.3927418 L12.7449113,59.3927418 C12.0235351,58.7484223 11.3625673,57.9018637 10.7338173,56.8144475 C10.0839243,55.6919698 9.24424847,54.0567804 8.35121196,52.0755487 L41.6482846,52.0755487 C40.7562549,54.055256 39.9170825,55.6889209 39.2681964,56.8093661 Z M47.3457972,32.3943318 C46.660666,38.5519531 44.7099803,44.6856918 42.7643286,49.4687987 L7.23567142,49.4687987 C5.29001972,44.6846755 3.339334,38.5509368 2.65420283,32.3928074 C2.34763055,29.6641041 3.0312515,26.6437294 4.68090237,23.4073959 L45.3155738,23.4073959 C46.9637145,26.6427131 47.6523695,29.6641041 47.3457972,32.3943318 Z M29.1110387,29.4644057 C28.5638399,28.7692724 28.0473487,28.1132657 27.631538,27.5065484 C26.9353319,26.4912879 26.7918622,25.9811169 26.7671954,25.7671907 C26.6796033,24.9907552 26.0297104,24.3901356 25.2554769,24.3708263 L25.2544701,24.3708263 C24.4263725,24.3357647 23.7367108,24.9800843 23.6647242,25.7992034 C23.5882069,26.6305178 22.2994959,28.2362352 21.1628124,29.6524169 L20.7600902,30.1559821 C19.0590922,32.2871146 17.4064209,34.5864409 17.5035777,37.1596538 C17.5101219,41.4102316 20.942322,44.8681135 25.1527827,44.8681135 C29.3320325,44.8681135 32.7481237,41.4539315 32.798464,37.2379071 L32.800981,37.1982723 C32.9852264,34.6865442 31.3783648,32.3821365 29.7146186,30.2352517 L29.1110387,29.4644057 Z M30.2165112,37.1662596 C30.2064431,39.9752487 27.9345864,42.2608553 25.1527827,42.2608553 C22.3639314,42.2608553 20.0915713,39.9701674 20.0855305,37.0971528 C20.0205915,35.387267 21.3767586,33.5381514 22.7706808,31.7911715 L23.1698792,31.2931959 C23.9466297,30.3246841 24.6715297,29.421214 25.2222523,28.5589031 C25.3113546,28.6991493 25.4064977,28.8429524 25.5071783,28.9898044 C25.9713156,29.6676611 26.5134804,30.3566968 27.087863,31.0858754 L27.680368,31.8424935 C29.0405623,33.5970954 30.357464,35.4431623 30.2230554,37.0361762 L30.2165112,37.1662596 Z" id="icon_8_" fill="#FFFFFF"></path>
                </g>
            </g>
        </g>
    </g>
</svg>