<?xml version="1.0" encoding="UTF-8"?>
<svg width="55px" height="71px" viewBox="0 0 55 71" version="1.1" xmlns="http://www.w3.org/2000/svg" xmlns:xlink="http://www.w3.org/1999/xlink">
    <!-- Generator: Sketch 50.2 (55047) - http://www.bohemiancoding.com/sketch -->
    <title>2</title>
    <desc>Created with Sketch.</desc>
    <defs></defs>
    <g id="Beevy-pages" stroke="none" stroke-width="1" fill="none" fill-rule="evenodd">
        <g id="Beevy-Homepage-Studenten" transform="translate(-421.000000, -1366.000000)" fill-rule="nonzero">
            <g id="Group-3" transform="translate(390.000000, 1291.000000)">
                <g id="2" transform="translate(31.000000, 75.000000)">
                    <polygon id="Shape" fill="#F7C911" points="47.9130036 46.5956081 55 34.4043919 47.9130036 22.202196 34.1083999 22.202196 27.0108495 10 12.8368566 10 5.74986016 22.202196 12.8368566 34.4043919 12.0869964 34.4043919 5 46.5956081 12.0869964 58.797804 25.8916001 58.797804 32.9891505 71 47.1631434 71 54.2501398 58.797804 47.1631434 46.5956081"></polygon>
                    <path d="M54,25.9220526 L45.935829,12.1558949 L32.0690589,12.1558949 L24.9488438,0 L8.81361156,0 L0.749970555,13.7656367 L7.49599545,25.2823234 L0,38.0779474 L8.063641,51.8441051 L21.9304111,51.8441051 L29.0506262,64 L45.1858584,64 L53.2494994,50.2343633 L46.5045346,38.7176766 L54,25.9220526 Z M44.0426171,15.3753785 L50.2204664,25.9220526 L44.0426171,36.4682056 L31.6943387,36.4682056 L25.5170194,25.9220526 L31.6943387,15.3753785 L44.0426171,15.3753785 Z M4.52897413,13.7656367 L10.7068234,3.21948361 L23.0551019,3.21948361 L29.0453261,13.4457721 L22.6803816,24.3128317 L10.7068234,24.3128317 L4.52897413,13.7656367 Z M9.95738291,48.6246215 L3.77953359,38.0779474 L9.95738291,27.5317944 L22.6803816,27.5317944 L28.4829806,37.4382183 L21.9309411,48.6246215 L9.95738291,48.6246215 Z M49.4710259,50.2343633 L43.2931766,60.7805164 L30.9448981,60.7805164 L24.7675788,50.2343633 L30.9448981,39.6876893 L43.2931766,39.6876893 L49.4710259,50.2343633 Z M12.8825331,6.06752841 L7.81824428,14.4861134 L6.87905854,13.9401556 L12.259766,4.99436721 L22.877547,4.99436721 L22.877547,6.06752841 L12.8825331,6.06752841 Z M27.2809077,26.2580666 L32.6616152,17.3122782 L43.2793962,17.3122782 L43.2793962,18.3854394 L33.2843822,18.3854394 L28.2200934,26.8040244 L27.2809077,26.2580666 Z M31.9111146,41.4792433 L42.5288956,41.4792433 L42.5288956,42.5524045 L32.5338817,42.5524045 L27.4695929,50.9709895 L26.5304071,50.4250317 L31.9111146,41.4792433 Z M11.1679361,29.674991 L21.7857171,29.674991 L21.7857171,30.7481522 L11.7907032,30.7481522 L6.72641435,39.1667372 L5.78722861,38.6207795 L11.1679361,29.674991 Z" id="icon_16_" fill="#F9F9F9" opacity="0.95"></path>
                </g>
            </g>
        </g>
    </g>
</svg>