<?xml version="1.0" encoding="UTF-8"?>
<svg width="84px" height="83px" viewBox="0 0 84 83" version="1.1" xmlns="http://www.w3.org/2000/svg" xmlns:xlink="http://www.w3.org/1999/xlink">
    <!-- Generator: Sketch 50.2 (55047) - http://www.bohemiancoding.com/sketch -->
    <title>icons8-presentation</title>
    <desc>Created with Sketch.</desc>
    <defs></defs>
    <g id="Beevy-pages" stroke="none" stroke-width="1" fill="none" fill-rule="evenodd">
        <g id="Beevy-Homepage-Studenten" transform="translate(-801.000000, -1365.000000)">
            <g id="Group-3" transform="translate(390.000000, 1291.000000)">
                <g id="icons8-presentation" transform="translate(413.000000, 76.000000)">
                    <rect id="Rectangle-path" stroke="#FFFFFF" stroke-width="3" stroke-linecap="round" stroke-linejoin="round" x="3" y="8" width="72" height="58"></rect>
                    <rect id="Rectangle-path" stroke="#FFFFFF" stroke-width="3" stroke-linecap="round" stroke-linejoin="round" x="0" y="0" width="80" height="8"></rect>
                    <path d="M40,66 L40,74" id="Shape" stroke="#FFFFFF" stroke-width="2" stroke-linecap="round" stroke-linejoin="round"></path>
                    <circle id="Oval" stroke="#FFFFFF" stroke-width="2" fill="#FFFFFF" stroke-linecap="round" stroke-linejoin="round" cx="40" cy="76" r="4"></circle>
                    <path d="M66,28 L46,28" id="Shape" stroke="#FFFFFF" stroke-width="3" stroke-linecap="round" stroke-linejoin="round"></path>
                    <path d="M66,37 L46,37" id="Shape" stroke="#FFFFFF" stroke-width="3" stroke-linecap="round" stroke-linejoin="round"></path>
                    <path d="M66,46 L46,46" id="Shape" stroke="#FFFFFF" stroke-width="3" stroke-linecap="round" stroke-linejoin="round"></path>
                    <g id="Group-2" transform="translate(11.000000, 17.000000)" fill="#FFFFFF" fill-rule="nonzero">
                        <path d="M23.9776075,21.4819945 L24,21.4819945 C23.8656453,21.0609418 23.4737773,19.7645429 22.824396,19 L22.5220978,19.1551247 L5,28.7950139 C5.3134944,29.3379501 5.68296995,29.8254848 6.07483795,30.2686981 C6.29876252,30.534626 6.51149087,30.767313 6.79139658,31 L23.9552151,21.4709141 L23.9776075,21.4819945 Z" id="Shape"></path>
                        <path d="M22.7048454,15.5966603 C22.9772958,13.8646571 23,14.1476642 23,12.9024331 C23,10.3893304 21.9556069,8.12527388 19.8441164,6.12158387 C17.6418091,4.25373725 15.1897557,3.3141538 12.476604,3.3141538 C10.875958,3.3141538 9.47964974,3.54055945 8.27632721,3.99337075 C8.18551042,4.0273316 8.08334153,4.07261273 7.99252473,4.10657357 C7.85629954,4.17449527 7.72007435,4.23109668 7.58384916,4.29901838 C7.26599038,4.44618205 6.9708358,4.59334572 6.68703331,4.75182968 L6.39187873,0.2010761 C5.64264018,-0.274375767 4.99557052,0.235036948 4.99557052,0.29163836 L5.3361335,5.60085087 C4.62095124,6.12158387 4.06469838,6.65363715 3.7241354,7.17437014 L1.11315256,3.77828538 C0.556899694,3.66508256 -0.0220573703,4.14053442 0.000646828313,4.62730657 L3.30410772,8.92901394 L3.36086822,26 L7.50438446,23.7812246 L22.7048454,15.5966603 Z M7.49303236,9.06485733 C7.81089114,8.71392857 8.14010202,8.39696066 8.5033692,8.12527388 C8.59418599,8.05735218 8.68500279,7.98943048 8.77581958,7.94414935 C8.79852378,7.92150879 8.83258008,7.91018851 8.85528428,7.89886822 C10.8646059,6.68759799 13.736687,6.65363715 15.91629,7.80830596 C16.0184589,7.86490738 16.1092757,7.91018851 16.2114446,7.96678992 C16.2682051,8.00075077 16.3249656,8.03471162 16.3817261,8.06867246 C16.3817261,8.06867246 16.3817261,8.06867246 16.3817261,8.06867246 C16.4384866,8.10263331 16.4952471,8.14791444 16.5520076,8.18187529 C16.597416,8.20451585 16.6314723,8.2384767 16.6768807,8.26111727 C16.7563454,8.31771868 16.8358101,8.37432009 16.9152748,8.44224179 C18.4364561,9.6648323 19.344624,11.6458817 18.8564838,14.3967104 L7.50438446,20.4417413 L7.50438446,9.06485733 L7.49303236,9.06485733 Z" id="Shape"></path>
                        <path d="M15.6491904,29.3944637 L9,33.3737024 C11.6661527,34.4925029 14.2459522,34.5963091 16.6638396,33.5928489 L19.5890517,34.9538639 L19.6861989,35 L19.6861989,34.8846597 L19.7401696,31.5513264 C20.3554356,30.928489 20.9383192,30.2018454 21.4996145,29.3483276 C22.2228219,27.9527105 22.7517348,26.361015 23,25 L16.2536623,29.0023068 C16.2536623,29.0023068 15.6491904,29.3944637 15.6491904,29.3944637 Z" id="Shape"></path>
                    </g>
                </g>
            </g>
        </g>
    </g>
</svg>